<svg xmlns="http://www.w3.org/2000/svg" width="756" height="398" viewBox="0 0 756 398">
  <g id="Group_17323" data-name="Group 17323" transform="translate(-514 -5905)">
    <rect id="Rectangle_10971" data-name="Rectangle 10971" width="756" height="398" rx="10" transform="translate(514 5905)" fill="#fff"/>
    <g id="Group_17306" data-name="Group 17306" transform="translate(20 120)">
      <g id="Group_17143" data-name="Group 17143" transform="translate(27 9)">
        <rect id="Rectangle_10972" data-name="Rectangle 10972" width="87" height="46" rx="10" transform="translate(1076 5836)" fill="#ffd065"/>
        <text id="Shortlist_Candidates" data-name="Shortlist Candidates" transform="translate(1082 5842)" fill="#061748" font-size="14" font-family="ProximaNova-SemiboldIt, Proxima Nova" font-weight="600" font-style="italic"><tspan x="0" y="13">Shortlist </tspan><tspan x="0" y="30">Candidates</tspan></text>
      </g>
      <text id="Create_Test" data-name="Create Test" transform="translate(554 5887)" font-size="14" font-family="ProximaNova-RegularIt, Proxima Nova" font-style="italic"><tspan x="0" y="0">Create Test</tspan></text>
      <text id="Select_Skills" data-name="Select Skills" transform="translate(554 5972)" font-size="14" font-family="ProximaNova-RegularIt, Proxima Nova" font-style="italic"><tspan x="0" y="0">Select Skills</tspan></text>
      <text id="Basic_Details" data-name="Basic Details" transform="translate(721 6057)" font-size="14" font-family="ProximaNova-RegularIt, Proxima Nova" font-style="italic"><tspan x="0" y="0">Basic Details</tspan></text>
      <text id="Publish_test" data-name="Publish test" transform="translate(867 6119)" font-size="14" font-family="ProximaNova-RegularIt, Proxima Nova" font-style="italic"><tspan x="0" y="0">Publish test</tspan></text>
      <text id="Analysis" transform="translate(1137 5972)" font-size="14" font-family="ProximaNova-RegularIt, Proxima Nova" font-style="italic"><tspan x="0" y="0">Analysis</tspan></text>
      <text id="Invite_Candidates" data-name="Invite Candidates" transform="translate(1006 6119)" font-size="14" font-family="ProximaNova-RegularIt, Proxima Nova" font-style="italic"><tspan x="0" y="0">Invite Candidates</tspan></text>
      <text id="Questions" transform="translate(721 6088)" font-size="14" font-family="ProximaNova-RegularIt, Proxima Nova" font-style="italic"><tspan x="0" y="0">Questions</tspan></text>
      <text id="Add_Section" data-name="Add Section" transform="translate(868 6088)" font-size="14" font-family="ProximaNova-RegularIt, Proxima Nova" font-style="italic"><tspan x="0" y="0">Add Section</tspan></text>
      <text id="Add_Questions" data-name="Add Questions" transform="translate(868 6003)" font-size="14" font-family="ProximaNova-RegularIt, Proxima Nova" font-style="italic"><tspan x="0" y="0">Add Questions</tspan></text>
      <text id="Create_Questions" data-name="Create Questions" transform="translate(987 6003)" font-size="14" font-family="ProximaNova-RegularIt, Proxima Nova" font-style="italic"><tspan x="0" y="0">Create Questions</tspan></text>
      <text id="Question_Library" data-name="Question Library" transform="translate(920 5887)" font-size="14" font-family="ProximaNova-RegularIt, Proxima Nova" font-style="italic"><tspan x="0" y="0">Question Library</tspan></text>
      <text id="Test_Settings" data-name="Test Settings" transform="translate(721 6119)" font-size="14" font-family="ProximaNova-RegularIt, Proxima Nova" font-style="italic"><tspan x="0" y="0">Test Settings</tspan></text>
      <text id="Pre_test_settings" data-name="Pre test settings" transform="translate(554 6057)" font-size="14" font-family="ProximaNova-RegularIt, Proxima Nova" font-style="italic"><tspan x="0" y="0">Pre test settings</tspan></text>
      <text id="Blank_Test" data-name="Blank Test" transform="translate(693 5887)" font-size="14" font-family="ProximaNova-RegularIt, Proxima Nova" font-style="italic"><tspan x="0" y="0">Blank Test</tspan></text>
      <g id="Group_17180" data-name="Group 17180" transform="translate(260 5597)">
        <path id="Path_73" data-name="Path 73" d="M0,0H33" transform="translate(379 285)" fill="none" stroke="#b7b6bd" stroke-width="1"/>
        <g id="Ellipse_1" data-name="Ellipse 1" transform="translate(405 278)" fill="#fff" stroke="#b7b6bd" stroke-width="1">
          <circle cx="7" cy="7" r="7" stroke="none"/>
          <circle cx="7" cy="7" r="6.5" fill="none"/>
        </g>
      </g>
      <g id="Group_17188" data-name="Group 17188" transform="translate(434 5799)">
        <path id="Path_73-2" data-name="Path 73" d="M0,0H33" transform="translate(379 285)" fill="none" stroke="#b7b6bd" stroke-width="1"/>
        <g id="Ellipse_1-2" data-name="Ellipse 1" transform="translate(405 278)" fill="#fff" stroke="#b7b6bd" stroke-width="1">
          <circle cx="7" cy="7" r="7" stroke="none"/>
          <circle cx="7" cy="7" r="6.5" fill="none"/>
        </g>
      </g>
      <g id="Group_17199" data-name="Group 17199" transform="translate(624 6440) rotate(-90)">
        <path id="Path_73-3" data-name="Path 73" d="M0,0H33" transform="translate(379 285)" fill="none" stroke="#b7b6bd" stroke-width="1"/>
        <g id="Ellipse_1-3" data-name="Ellipse 1" transform="translate(405 278)" fill="#fff" stroke="#b7b6bd" stroke-width="1">
          <circle cx="7" cy="7" r="7" stroke="none"/>
          <circle cx="7" cy="7" r="6.5" fill="none"/>
        </g>
        <g id="Ellipse_1484" data-name="Ellipse 1484" transform="translate(405 278)" fill="#fff" stroke="#b7b6bd" stroke-width="1">
          <circle cx="7" cy="7" r="7" stroke="none"/>
          <circle cx="7" cy="7" r="6.5" fill="none"/>
        </g>
      </g>
      <g id="Group_17189" data-name="Group 17189" transform="translate(434 5830)">
        <path id="Path_73-4" data-name="Path 73" d="M0,0H33" transform="translate(379 285)" fill="none" stroke="#b7b6bd" stroke-width="1"/>
        <g id="Ellipse_1-4" data-name="Ellipse 1" transform="translate(405 278)" fill="#fff" stroke="#b7b6bd" stroke-width="1">
          <circle cx="7" cy="7" r="7" stroke="none"/>
          <circle cx="7" cy="7" r="6.5" fill="none"/>
        </g>
      </g>
      <g id="Group_17200" data-name="Group 17200" transform="translate(573 5830)">
        <path id="Path_73-5" data-name="Path 73" d="M0,0H33" transform="translate(379 285)" fill="none" stroke="#b7b6bd" stroke-width="1"/>
        <g id="Ellipse_1-5" data-name="Ellipse 1" transform="translate(405 278)" fill="#fff" stroke="#b7b6bd" stroke-width="1">
          <circle cx="7" cy="7" r="7" stroke="none"/>
          <circle cx="7" cy="7" r="6.5" fill="none"/>
        </g>
      </g>
      <g id="Group_17201" data-name="Group 17201" transform="translate(858 6324) rotate(-90)">
        <path id="Path_73-6" data-name="Path 73" d="M0,0H33" transform="translate(379 285)" fill="none" stroke="#b7b6bd" stroke-width="1"/>
        <g id="Ellipse_1-6" data-name="Ellipse 1" transform="translate(405 278)" fill="#fff" stroke="#b7b6bd" stroke-width="1">
          <circle cx="7" cy="7" r="7" stroke="none"/>
          <circle cx="7" cy="7" r="6.5" fill="none"/>
        </g>
      </g>
      <g id="Group_17209" data-name="Group 17209" transform="translate(858 6409) rotate(-90)">
        <path id="Path_73-7" data-name="Path 73" d="M-85-15V0H33" transform="translate(379 285)" fill="none" stroke="#b7b6bd" stroke-width="1"/>
        <g id="Ellipse_1-7" data-name="Ellipse 1" transform="translate(405 278)" fill="#fff" stroke="#b7b6bd" stroke-width="1">
          <circle cx="7" cy="7" r="7" stroke="none"/>
          <circle cx="7" cy="7" r="6.5" fill="none"/>
        </g>
      </g>
      <g id="Group_17181" data-name="Group 17181" transform="translate(846 5526) rotate(90)">
        <path id="Path_73-8" data-name="Path 73" d="M0,0H33" transform="translate(379 285)" fill="none" stroke="#b7b6bd" stroke-width="1"/>
        <g id="Ellipse_1-8" data-name="Ellipse 1" transform="translate(405 278)" fill="#fff" stroke="#b7b6bd" stroke-width="1">
          <circle cx="7" cy="7" r="7" stroke="none"/>
          <circle cx="7" cy="7" r="6.5" fill="none"/>
        </g>
      </g>
      <g id="Group_17193" data-name="Group 17193" transform="translate(846 5611) rotate(90)">
        <path id="Path_73-9" data-name="Path 73" d="M0,0H33" transform="translate(379 285)" fill="none" stroke="#b7b6bd" stroke-width="1"/>
        <g id="Ellipse_1-9" data-name="Ellipse 1" transform="translate(405 278)" fill="#fff" stroke="#b7b6bd" stroke-width="1">
          <circle cx="7" cy="7" r="7" stroke="none"/>
          <circle cx="7" cy="7" r="6.5" fill="none"/>
        </g>
      </g>
      <g id="Group_17194" data-name="Group 17194" transform="translate(1035 5611) rotate(90)">
        <path id="Path_73-10" data-name="Path 73" d="M0,0H116.632" transform="translate(294 285)" fill="none" stroke="#b7b6bd" stroke-width="1"/>
        <g id="Ellipse_1-10" data-name="Ellipse 1" transform="translate(405 278)" fill="#fff" stroke="#b7b6bd" stroke-width="1">
          <circle cx="7" cy="7" r="7" stroke="none"/>
          <circle cx="7" cy="7" r="6.5" fill="none"/>
        </g>
      </g>
      <g id="Group_17186" data-name="Group 17186" transform="translate(288 5830)">
        <path id="Path_73-11" data-name="Path 73" d="M16-31V0H33" transform="translate(379 285)" fill="none" stroke="#b7b6bd" stroke-width="1"/>
        <g id="Ellipse_1-11" data-name="Ellipse 1" transform="translate(405 278)" fill="#fff" stroke="#b7b6bd" stroke-width="1">
          <circle cx="7" cy="7" r="7" stroke="none"/>
          <circle cx="7" cy="7" r="6.5" fill="none"/>
        </g>
      </g>
      <g id="Group_17198" data-name="Group 17198" transform="translate(752 6440) rotate(-90)">
        <path id="Path_73-12" data-name="Path 73" d="M16-128V0H33" transform="translate(379 285)" fill="none" stroke="#b7b6bd" stroke-width="1"/>
        <g id="Ellipse_1-12" data-name="Ellipse 1" transform="translate(405 278)" fill="#fff" stroke="#b7b6bd" stroke-width="1">
          <circle cx="7" cy="7" r="7" stroke="none"/>
          <circle cx="7" cy="7" r="6.5" fill="none"/>
        </g>
      </g>
      <g id="Group_17168" data-name="Group 17168" transform="translate(1001 5976) rotate(-90)">
        <path id="Path_73-13" data-name="Path 73" d="M32-30V36H0" fill="none" stroke="#b7b6bd" stroke-width="1"/>
      </g>
      <g id="Group_17170" data-name="Group 17170" transform="translate(908 5957) rotate(-90)">
        <path id="Path_73-14" data-name="Path 73" d="M0,0H32V62H71" transform="translate(-19 1)" fill="none" stroke="#b7b6bd" stroke-width="1"/>
      </g>
      <g id="Ellipse_1485" data-name="Ellipse 1485" transform="translate(964 5919) rotate(-90)" fill="#fff" stroke="#b7b6bd" stroke-width="1">
        <circle cx="7" cy="7" r="7" stroke="none"/>
        <circle cx="7" cy="7" r="6.5" fill="none"/>
      </g>
      <g id="Group_17202" data-name="Group 17202" transform="translate(288 5768)">
        <path id="Path_73-15" data-name="Path 73" d="M0,0H33" transform="translate(379 285)" fill="none" stroke="#b7b6bd" stroke-width="1"/>
        <g id="Ellipse_1-13" data-name="Ellipse 1" transform="translate(405 278)" fill="#fff" stroke="#b7b6bd" stroke-width="1">
          <circle cx="7" cy="7" r="7" stroke="none"/>
          <circle cx="7" cy="7" r="6.5" fill="none"/>
        </g>
      </g>
      <g id="Group_17203" data-name="Group 17203" transform="translate(288 5799)">
        <path id="Path_73-16" data-name="Path 73" d="M16-31V0H33" transform="translate(379 285)" fill="none" stroke="#b7b6bd" stroke-width="1"/>
        <g id="Ellipse_1-14" data-name="Ellipse 1" transform="translate(405 278)" fill="#fff" stroke="#b7b6bd" stroke-width="1">
          <circle cx="7" cy="7" r="7" stroke="none"/>
          <circle cx="7" cy="7" r="6.5" fill="none"/>
        </g>
      </g>
    </g>
  </g>
</svg>
