<svg xmlns="http://www.w3.org/2000/svg" width="736" height="455" viewBox="0 0 736 455">
  <g id="Group_17321" data-name="Group 17321" transform="translate(-514 -5212)">
    <g id="Group_17305" data-name="Group 17305" transform="translate(0 100)">
      <rect id="Rectangle_10965" data-name="Rectangle 10965" width="736" height="455" rx="10" transform="translate(514 5112)" fill="#fff"/>
    </g>
    <text id="Business_Reqirement" data-name="Business 
Reqirement" transform="translate(574 5285)" font-size="14" font-family="ProximaNova-RegularIt, Proxima Nova" font-style="italic"><tspan x="0" y="0">Business </tspan><tspan x="0" y="17">Reqirement</tspan></text>
    <text id="Budget" transform="translate(713 5285)" font-size="14" font-family="ProximaNova-RegularIt, Proxima Nova" font-style="italic"><tspan x="0" y="0">Budget</tspan></text>
    <g id="Group_17169" data-name="Group 17169" transform="translate(141.257 -142.5)">
      <rect id="Rectangle_10706" data-name="Rectangle 10706" width="87" height="46" rx="10" transform="translate(798.743 5657.5)" fill="#ffd065"/>
      <text id="Shortlist_Candidates" data-name="Shortlist Candidates" transform="translate(804.743 5663.5)" fill="#061748" font-size="14" font-family="ProximaNova-SemiboldIt, Proxima Nova" font-weight="600" font-style="italic"><tspan x="0" y="13">Shortlist </tspan><tspan x="0" y="30">Candidates</tspan></text>
    </g>
    <text id="Qualification" transform="translate(713 5316)" font-size="14" font-family="ProximaNova-RegularIt, Proxima Nova" font-style="italic"><tspan x="0" y="0">Qualification</tspan></text>
    <text id="Careers" transform="translate(1067 5557)" font-size="14" font-family="ProximaNova-RegularIt, Proxima Nova" font-style="italic"><tspan x="0" y="0">Careers</tspan></text>
    <text id="Keywords" transform="translate(713 5347)" font-size="14" font-family="ProximaNova-RegularIt, Proxima Nova" font-style="italic"><tspan x="0" y="0">Keywords</tspan></text>
    <text id="Must_haves_and_could_have" data-name="Must haves and 
could have" transform="translate(713 5378)" font-size="14" font-family="ProximaNova-RegularIt, Proxima Nova" font-style="italic"><tspan x="0" y="0">Must haves and </tspan><tspan x="0" y="17">could have</tspan></text>
    <text id="Portals" transform="translate(1148 5557)" font-size="14" font-family="ProximaNova-RegularIt, Proxima Nova" font-style="italic"><tspan x="0" y="0">Portals</tspan></text>
    <text id="Talent_Acquisition_" data-name="Talent Acquisition " transform="translate(878 5285)" font-size="14" font-family="ProximaNova-RegularIt, Proxima Nova" font-style="italic"><tspan x="0" y="0">Talent Acquisition </tspan></text>
    <text id="Job_Description_" data-name="Job Description " transform="translate(1076 5285)" font-size="14" font-family="ProximaNova-RegularIt, Proxima Nova" font-style="italic"><tspan x="0" y="0">Job Description </tspan></text>
    <text id="Application_Tracking_System" data-name="Application 
Tracking System" transform="translate(1076 5370)" font-size="14" font-family="ProximaNova-RegularIt, Proxima Nova" font-style="italic"><tspan x="0" y="0">Application </tspan><tspan x="0" y="17">Tracking System</tspan></text>
    <text id="Advertisement_" data-name="Advertisement " transform="translate(1080 5472)" font-size="14" font-family="ProximaNova-RegularIt, Proxima Nova" font-style="italic"><tspan x="0" y="0">Advertisement </tspan></text>
    <g id="Group_17126" data-name="Group 17126" transform="translate(-321 294)">
      <g id="Path_93" data-name="Path 93" transform="translate(1021 5124)" fill="#fff">
        <path d="M 192.7333374023438 178.6834106445312 L 5.266657829284668 178.6834106445312 C 2.638315677642822 178.6834106445312 0.5 176.3314056396484 0.5 173.4403839111328 L 0.5 37.65672302246094 L 0.5 35.74306488037109 C 0.5 32.8520393371582 2.638315677642822 30.50001335144043 5.266657829284668 30.50001335144043 L 192.7333374023438 30.50001335144043 C 195.3616790771484 30.50001335144043 197.5 32.8520393371582 197.5 35.74306488037109 L 197.5 106.9999847412109 L 197.5 107.2299575805664 L 197.6746063232422 107.3796157836914 L 211.2317047119141 119.0000152587891 L 197.6746063232422 130.6203765869141 L 197.5 130.7700347900391 L 197.5 131.0000152587891 L 197.5 173.4403839111328 C 197.5 176.3314056396484 195.3616790771484 178.6834106445312 192.7333374023438 178.6834106445312 Z" stroke="none"/>
        <path d="M 5.26666259765625 31 C 2.914031982421875 31 1 33.12773132324219 1 35.74305725097656 L 1 37.65672302246094 L 1 173.4403686523438 C 1 176.0556640625 2.914031982421875 178.1833953857422 5.26666259765625 178.1833953857422 L 192.7333374023438 178.1833953857422 C 195.0859680175781 178.1833953857422 197 176.0556640625 197 173.4403686523438 L 197 131 L 197 130.5400695800781 L 197.3492279052734 130.2407531738281 L 210.4634246826172 119 L 197.3492279052734 107.7592544555664 L 197 107.4599456787109 L 197 107 L 197 35.74305725097656 C 197 33.12773132324219 195.0859680175781 31 192.7333374023438 31 L 5.26666259765625 31 M 5.26666259765625 30 L 192.7333374023438 30 C 195.6420288085938 30 198 32.57125854492188 198 35.74305725097656 L 198 107 L 212 119 L 198 131 L 198 173.4403686523438 C 198 176.6121368408203 195.6420288085938 179.1833953857422 192.7333374023438 179.1833953857422 L 5.26666259765625 179.1833953857422 C 2.35797119140625 179.1833953857422 0 176.6121368408203 0 173.4403686523438 L 0 37.65672302246094 L 0 35.74305725097656 C 0 32.57125854492188 2.35797119140625 30 5.26666259765625 30 Z" stroke="none" fill="#ffd065"/>
      </g>
      <text id="HE_Involvement_Shortlisting_the_candidate_is_the_place_where_HE_is_primarily_involved._Where_could_we_probably_involve_more_to_make_TA_s_life_easy_" data-name="HE Involvement
Shortlisting the candidate is the place where HE is primarily involved. 
Where could we probably involve more to make TA’s life easy?" transform="translate(1035 5171)" font-size="14" font-family="ProximaNova-Bold, Proxima Nova" font-weight="700"><tspan x="0" y="13">HE Involvement</tspan><tspan font-family="ProximaNova-RegularIt, Proxima Nova" font-weight="400" font-style="italic"><tspan x="0" y="30">Shortlisting the candidate </tspan><tspan x="0" y="47">is the place where HE is </tspan><tspan x="0" y="64">primarily involved. </tspan><tspan x="0" y="81">Where could we probably </tspan><tspan x="0" y="98">involve more to make TA’s </tspan><tspan x="0" y="115">life easy?</tspan></tspan></text>
    </g>
    <g id="Group_272" data-name="Group 272" transform="translate(280 4996)">
      <path id="Path_73" data-name="Path 73" d="M0,0H33" transform="translate(379 285)" fill="none" stroke="#b7b6bd" stroke-width="1"/>
      <g id="Ellipse_1" data-name="Ellipse 1" transform="translate(405 278)" fill="#fff" stroke="#b7b6bd" stroke-width="1">
        <circle cx="7" cy="7" r="7" stroke="none"/>
        <circle cx="7" cy="7" r="6.5" fill="none"/>
      </g>
    </g>
    <g id="Group_17175" data-name="Group 17175" transform="translate(824 5274)">
      <path id="Path_73-2" data-name="Path 73" d="M33,0H0" transform="translate(7 7)" fill="none" stroke="#b7b6bd" stroke-width="1"/>
    </g>
    <g id="Group_17164" data-name="Group 17164" transform="translate(445 4996)">
      <path id="Path_73-3" data-name="Path 73" d="M0,0H33" transform="translate(379 285)" fill="none" stroke="#b7b6bd" stroke-width="1"/>
      <g id="Ellipse_1-2" data-name="Ellipse 1" transform="translate(405 278)" fill="#fff" stroke="#b7b6bd" stroke-width="1">
        <circle cx="7" cy="7" r="7" stroke="none"/>
        <circle cx="7" cy="7" r="6.5" fill="none"/>
      </g>
    </g>
    <g id="Group_17165" data-name="Group 17165" transform="translate(628 4996)">
      <path id="Path_73-4" data-name="Path 73" d="M0,0H33" transform="translate(379 285)" fill="none" stroke="#b7b6bd" stroke-width="1"/>
      <g id="Ellipse_1-3" data-name="Ellipse 1" transform="translate(405 278)" fill="#fff" stroke="#b7b6bd" stroke-width="1">
        <circle cx="7" cy="7" r="7" stroke="none"/>
        <circle cx="7" cy="7" r="6.5" fill="none"/>
      </g>
    </g>
    <g id="Group_17195" data-name="Group 17195" transform="translate(30 -201)">
      <path id="Path_73-5" data-name="Path 73" d="M32,36H18V0H0" transform="translate(1060 5724) rotate(-90)" fill="none" stroke="#b7b6bd" stroke-width="1"/>
      <g id="Ellipse_1-4" data-name="Ellipse 1" transform="translate(1053 5731) rotate(-90)" fill="#fff" stroke="#b7b6bd" stroke-width="1">
        <circle cx="7" cy="7" r="7" stroke="none"/>
        <circle cx="7" cy="7" r="6.5" fill="none"/>
      </g>
    </g>
    <g id="Group_17179" data-name="Group 17179" transform="translate(6682 4442) rotate(90)">
      <path id="Path_22843" data-name="Path 22843" d="M56-101V36H0" transform="translate(958 5642) rotate(90)" fill="none" stroke="#b7b6bd" stroke-width="1"/>
      <g id="Ellipse_1483" data-name="Ellipse 1483" transform="translate(929 5635) rotate(90)" fill="#fff" stroke="#b7b6bd" stroke-width="1">
        <circle cx="7" cy="7" r="7" stroke="none"/>
        <circle cx="7" cy="7" r="6.5" fill="none"/>
      </g>
    </g>
    <g id="Group_17170" data-name="Group 17170" transform="translate(1126 5530) rotate(-90)">
      <path id="Path_73-6" data-name="Path 73" d="M32,0H18V36H0" transform="translate(7)" fill="none" stroke="#b7b6bd" stroke-width="1"/>
      <g id="Ellipse_1-5" data-name="Ellipse 1" transform="translate(0 29)" fill="#fff" stroke="#b7b6bd" stroke-width="1">
        <circle cx="7" cy="7" r="7" stroke="none"/>
        <circle cx="7" cy="7" r="6.5" fill="none"/>
      </g>
    </g>
    <g id="Group_17168" data-name="Group 17168" transform="translate(1126 5576) rotate(90)">
      <path id="Path_73-7" data-name="Path 73" d="M32,0H15V36H0" transform="translate(-1)" fill="none" stroke="#b7b6bd" stroke-width="1"/>
    </g>
    <path id="Path_73-8" data-name="Path 73" d="M0,178H32V36H15V0H0" transform="translate(1162 5575) rotate(90)" fill="none" stroke="#b7b6bd" stroke-width="1"/>
    <g id="Group_17166" data-name="Group 17166" transform="translate(1411 4924) rotate(90)">
      <path id="Path_73-9" data-name="Path 73" d="M0,0H33" transform="translate(379 285)" fill="none" stroke="#b7b6bd" stroke-width="1"/>
      <g id="Ellipse_1-6" data-name="Ellipse 1" transform="translate(405 278)" fill="#fff" stroke="#b7b6bd" stroke-width="1">
        <circle cx="7" cy="7" r="7" stroke="none"/>
        <circle cx="7" cy="7" r="6.5" fill="none"/>
      </g>
    </g>
    <g id="Group_17167" data-name="Group 17167" transform="translate(1411 5026) rotate(90)">
      <path id="Path_73-10" data-name="Path 73" d="M0,0H33" transform="translate(379 285)" fill="none" stroke="#b7b6bd" stroke-width="1"/>
      <g id="Ellipse_1-7" data-name="Ellipse 1" transform="translate(405 278)" fill="#fff" stroke="#b7b6bd" stroke-width="1">
        <circle cx="7" cy="7" r="7" stroke="none"/>
        <circle cx="7" cy="7" r="6.5" fill="none"/>
      </g>
    </g>
    <g id="Group_17163" data-name="Group 17163" transform="translate(280 5089)">
      <path id="Path_73-11" data-name="Path 73" d="M16-31V0H33" transform="translate(379 285)" fill="none" stroke="#b7b6bd" stroke-width="1"/>
      <g id="Ellipse_1-8" data-name="Ellipse 1" transform="translate(405 278)" fill="#fff" stroke="#b7b6bd" stroke-width="1">
        <circle cx="7" cy="7" r="7" stroke="none"/>
        <circle cx="7" cy="7" r="6.5" fill="none"/>
      </g>
    </g>
    <g id="Group_17178" data-name="Group 17178" transform="translate(817 5343)">
      <path id="Path_73-12" data-name="Path 73" d="M33-31V0H16" transform="translate(-9 31)" fill="none" stroke="#b7b6bd" stroke-width="1"/>
    </g>
    <g id="Group_17173" data-name="Group 17173" transform="translate(280 5058)">
      <path id="Path_73-13" data-name="Path 73" d="M16-31V0H33" transform="translate(379 285)" fill="none" stroke="#b7b6bd" stroke-width="1"/>
      <g id="Ellipse_1-9" data-name="Ellipse 1" transform="translate(405 278)" fill="#fff" stroke="#b7b6bd" stroke-width="1">
        <circle cx="7" cy="7" r="7" stroke="none"/>
        <circle cx="7" cy="7" r="6.5" fill="none"/>
      </g>
    </g>
    <g id="Group_17177" data-name="Group 17177" transform="translate(817 5312)">
      <path id="Path_73-14" data-name="Path 73" d="M33-31V0H16" transform="translate(-9 31)" fill="none" stroke="#b7b6bd" stroke-width="1"/>
    </g>
    <g id="Group_17174" data-name="Group 17174" transform="translate(280 5027)">
      <path id="Path_73-15" data-name="Path 73" d="M16-31V0H33" transform="translate(379 285)" fill="none" stroke="#b7b6bd" stroke-width="1"/>
      <g id="Ellipse_1-10" data-name="Ellipse 1" transform="translate(405 278)" fill="#fff" stroke="#b7b6bd" stroke-width="1">
        <circle cx="7" cy="7" r="7" stroke="none"/>
        <circle cx="7" cy="7" r="6.5" fill="none"/>
      </g>
    </g>
    <g id="Group_17176" data-name="Group 17176" transform="translate(824 5281)">
      <path id="Path_73-16" data-name="Path 73" d="M33-31V0H16" transform="translate(-16 31)" fill="none" stroke="#b7b6bd" stroke-width="1"/>
    </g>
    <g id="Ellipse_1482" data-name="Ellipse 1482" transform="translate(977 5589) rotate(-90)" fill="#fff" stroke="#b7b6bd" stroke-width="1">
      <circle cx="7" cy="7" r="7" stroke="none"/>
      <circle cx="7" cy="7" r="6.5" fill="none"/>
    </g>
  </g>
</svg>
